<svg id="Capa_1" data-name="Capa 1" xmlns="http://www.w3.org/2000/svg" viewBox="0 0 1757.02 650.24"><defs><style>.cls-1{fill:#fff;}</style></defs><circle class="cls-1" cx="111.52" cy="278.71" r="41.5"/><circle class="cls-1" cx="150.02" cy="137.21" r="87"/><path class="cls-1" d="M215.86,253.78S95.51,377,235.51,492c-8-12,40.12-192.18,122-27,0,0,26-10,35-45,0,0,53,226-83,289,0,0-81,29-137-97,0,0-37-51-36-192,0,0,4.34-127.21,75.17-172.6Z" transform="translate(-136.49 -65.79)"/><path class="cls-1" d="M232.51,127s57.62-39,106.81,0c0,0,49.19,30,39.19,97,0,0,70,81,17,190,0,0,69,234-87,302,0,0,105,7,149-198,0,0,37-181-69-310,0,0,56-75-28-134C360.51,74,272.51,35,232.51,127Z" transform="translate(-136.49 -65.79)"/><path class="cls-1" d="M763.74,355.89V263.74h62.17v10.87h-50v28.54h43.24V314H775.94v41.86Z" transform="translate(-136.49 -65.79)"/><path class="cls-1" d="M884.06,355.89v-9.81q-7.8,11.32-21.19,11.32a27.1,27.1,0,0,1-11-2.26,18.23,18.23,0,0,1-7.61-5.69,21.42,21.42,0,0,1-3.48-8.39,56.65,56.65,0,0,1-.7-10.57V289.13h11.32v37q0,8.86.69,11.94a11.77,11.77,0,0,0,4.53,7,14,14,0,0,0,8.54,2.55,18.63,18.63,0,0,0,9.56-2.61,14.56,14.56,0,0,0,6.32-7.11q1.85-4.49,1.85-13V289.13h11.32v66.76Z" transform="translate(-136.49 -65.79)"/><path class="cls-1" d="M911.9,355.89V289.13h10.19v9.5q7.35-11,21.24-11a28,28,0,0,1,11.1,2.17,17.51,17.51,0,0,1,7.57,5.69,21.84,21.84,0,0,1,3.52,8.36,64.66,64.66,0,0,1,.63,11v41.05H954.84V315.28c0-4.61-.44-8-1.32-10.34a11,11,0,0,0-4.69-5.47,14.9,14.9,0,0,0-7.89-2A18.29,18.29,0,0,0,928.47,302q-5.25,4.59-5.25,17.41v36.46Z" transform="translate(-136.49 -65.79)"/><path class="cls-1" d="M1026.81,355.89v-8.42q-6.34,9.93-18.67,9.93a26.23,26.23,0,0,1-14.68-4.4,28.92,28.92,0,0,1-10.37-12.29,42.49,42.49,0,0,1-3.68-18.14,47.29,47.29,0,0,1,3.34-18.13,26.26,26.26,0,0,1,10-12.48,26.74,26.74,0,0,1,14.9-4.34,22.26,22.26,0,0,1,10.75,2.55,22.58,22.58,0,0,1,7.67,6.63V263.74h11.25v92.15ZM991,322.57q0,12.82,5.41,19.18t12.76,6.35a16,16,0,0,0,12.6-6.07Q1027,336,1027,323.52q0-13.71-5.28-20.12a16.25,16.25,0,0,0-13-6.41,15.69,15.69,0,0,0-12.61,6.16Q991,309.32,991,322.57Z" transform="translate(-136.49 -65.79)"/><path class="cls-1" d="M1098.66,347.66a42.31,42.31,0,0,1-12.1,7.54,34.93,34.93,0,0,1-12.48,2.2q-11,0-16.91-5.38a17.73,17.73,0,0,1-5.91-13.73,18.57,18.57,0,0,1,8.08-15.46,27.37,27.37,0,0,1,8.14-3.71,80.92,80.92,0,0,1,10.06-1.7q13.7-1.64,20.18-3.9c0-1.55.06-2.53.06-2.95q0-6.92-3.21-9.74-4.33-3.84-12.88-3.84c-5.33,0-9.25.93-11.79,2.8s-4.41,5.16-5.63,9.9l-11.06-1.51a27.35,27.35,0,0,1,5-11.47,21.73,21.73,0,0,1,10-6.73,44.63,44.63,0,0,1,15.15-2.36q8.55,0,13.89,2a18.27,18.27,0,0,1,7.86,5.06,17.74,17.74,0,0,1,3.52,7.7,63.1,63.1,0,0,1,.57,10.43v15.09q0,15.78.72,20a25.07,25.07,0,0,0,2.86,8h-11.82A24,24,0,0,1,1098.66,347.66Zm-.94-25.27q-6.17,2.5-18.48,4.27a43,43,0,0,0-9.87,2.26,9.9,9.9,0,0,0-4.47,3.68,9.73,9.73,0,0,0-1.57,5.38,9.62,9.62,0,0,0,3.43,7.54q3.42,3,10,3a23.39,23.39,0,0,0,11.63-2.86,17.6,17.6,0,0,0,7.48-7.83q1.83-3.84,1.83-11.32Z" transform="translate(-136.49 -65.79)"/><path class="cls-1" d="M1170.26,331.44l11.12,1.44q-1.82,11.5-9.33,18t-18.45,6.51q-13.71,0-22-9t-8.33-25.68a46.48,46.48,0,0,1,3.58-18.92,25,25,0,0,1,10.91-12.16,32.37,32.37,0,0,1,15.93-4.06q10.88,0,17.79,5.5t8.86,15.63l-11,1.69q-1.56-6.72-5.56-10.12a14.41,14.41,0,0,0-9.65-3.39,17.54,17.54,0,0,0-13.89,6.13q-5.34,6.12-5.34,19.39,0,13.46,5.15,19.55a16.79,16.79,0,0,0,13.45,6.1A15.9,15.9,0,0,0,1164.6,344Q1169.05,339.93,1170.26,331.44Z" transform="translate(-136.49 -65.79)"/><path class="cls-1" d="M1191.13,276.75v-13h11.31v13Zm0,79.14V289.13h11.31v66.76Z" transform="translate(-136.49 -65.79)"/><path class="cls-1" d="M1215.45,322.51q0-18.54,10.31-27.47,8.61-7.41,21-7.42,13.76,0,22.5,9t8.74,24.93q0,12.89-3.87,20.27a27.28,27.28,0,0,1-11.25,11.47,32.69,32.69,0,0,1-16.12,4.09q-14,0-22.66-9T1215.45,322.51Zm11.63,0q0,12.83,5.6,19.21a18.61,18.61,0,0,0,28.09,0q5.6-6.4,5.6-19.55,0-12.37-5.63-18.76a18.65,18.65,0,0,0-28.06,0Q1227.09,309.69,1227.08,322.51Zm13.39-41.67,8.36-17.61h14.84l-13.83,17.61Z" transform="translate(-136.49 -65.79)"/><path class="cls-1" d="M1291.26,355.89V289.13h10.19v9.5q7.35-11,21.24-11a28,28,0,0,1,11.1,2.17,17.57,17.57,0,0,1,7.57,5.69,21.84,21.84,0,0,1,3.52,8.36,64.66,64.66,0,0,1,.63,11v41.05H1334.2V315.28c0-4.61-.44-8-1.32-10.34a11,11,0,0,0-4.69-5.47,14.9,14.9,0,0,0-7.89-2,18.29,18.29,0,0,0-12.47,4.59q-5.26,4.59-5.25,17.41v36.46Z" transform="translate(-136.49 -65.79)"/><path class="cls-1" d="M656.62,461.59l60.13,18.18q-6.06,25.29-19.08,42.25a82.76,82.76,0,0,1-32.34,25.6q-19.32,8.64-49.15,8.64-36.21,0-59.15-10.52t-39.61-37q-16.66-26.49-16.66-67.82,0-55.1,29.31-84.69T613,326.63q42,0,66,17t35.67,52.1L654,409.18q-3.18-10.14-6.66-14.84a39.5,39.5,0,0,0-14.09-12.12A40.41,40.41,0,0,0,614.66,378q-23.32,0-35.74,18.76-9.4,13.92-9.39,43.72,0,36.92,11.2,50.61t31.51,13.69q19.68,0,29.76-11.06T656.62,461.59Z" transform="translate(-136.49 -65.79)"/><path class="cls-1" d="M802.18,443.72l-58.92-6.21q3.33-15.45,9.62-24.32T771,397.82q8.47-4.69,23.32-7.27A187.84,187.84,0,0,1,826.42,388q27.71,0,44.53,3.1T899,404q7.88,6.83,12.42,19.31a69.79,69.79,0,0,1,4.54,23.86v71a85.78,85.78,0,0,0,1.44,17.8q1.44,6.44,6.29,16.43H865.8a58.44,58.44,0,0,1-4.55-9.47,71.69,71.69,0,0,1-2.12-10.22Q847,544.45,835.05,549.44q-16.37,6.66-38,6.67-28.78,0-43.7-13.33t-14.92-32.87q0-18.33,10.76-30.14t39.68-17.58q34.68-7,45-9.76a210.72,210.72,0,0,0,21.81-7.35q0-11.35-4.7-15.91t-16.51-4.54q-15.15,0-22.72,4.85Q805.81,433.26,802.18,443.72Zm53.47,32.41q-12.72,4.55-26.51,8-18.78,5-23.78,9.84a15.76,15.76,0,0,0-.07,23.25q5.07,4.62,14.92,4.62a38.3,38.3,0,0,0,19.16-5q8.85-5,12.57-12.19t3.71-18.7Z" transform="translate(-136.49 -65.79)"/><path class="cls-1" d="M952.89,391.61h57.41v26.2q12.87-16.05,26-22.94t32.11-6.89q25.61,0,40.06,15.22t14.47,47V552.47h-62V464q0-15.13-5.6-21.43t-15.76-6.29a22.38,22.38,0,0,0-18.17,8.49q-7,8.48-7,30.44v77.25H952.89Z" transform="translate(-136.49 -65.79)"/><path class="cls-1" d="M1271.73,391.61h57.71V543.53l.15,7.12a67.11,67.11,0,0,1-6.43,28.86A60.85,60.85,0,0,1,1306,601.7q-10.68,8.47-27.11,12.27a168.88,168.88,0,0,1-37.64,3.78q-48.48,0-66.57-14.54t-18.1-38.93q0-3,.3-8.17l59.83,6.81q2.26,8.33,7,11.51,6.81,4.7,17.11,4.7,13.34,0,19.92-7.12t6.59-24.84V522.78q-9.09,10.76-18.18,15.6a64.45,64.45,0,0,1-30.74,7.58q-32.26,0-52.11-28.18-14.08-20-14.09-52.86,0-37.56,18.18-57.25T1218,388q18.78,0,31,6.36t22.79,21.05Zm-58,78q0,17.42,7.42,25.82t19.54,8.41a24.88,24.88,0,0,0,19.31-8.71q7.8-8.72,7.8-26.28T1259.61,442q-8.17-9.32-20-9.31t-18.86,8.56Q1213.72,449.77,1213.72,469.62Z" transform="translate(-136.49 -65.79)"/><path class="cls-1" d="M1536.2,552.47h-57.56V526.42q-12.89,16.05-26,22.87t-32.19,6.82q-25.44,0-39.91-15.23T1366.1,494V391.61h62v88.46q0,15.15,5.6,21.51t15.75,6.36a22.47,22.47,0,0,0,18.1-8.48q7.05-8.49,7-30.45v-77.4h61.65Z" transform="translate(-136.49 -65.79)"/><path class="cls-1" d="M1574.21,391.61h57.71V418q8.34-17.12,17.2-23.56T1671,388q13.63,0,29.84,8.48l-19.08,43.92q-10.9-4.54-17.27-4.54-12.12,0-18.78,10-9.54,14.09-9.54,52.71v53.92h-62Z" transform="translate(-136.49 -65.79)"/><path class="cls-1" d="M1708.72,472.49q0-36.8,24.84-60.66t67.1-23.85q48.31,0,73,28,19.85,22.56,19.84,55.59,0,37.11-24.61,60.81t-68.09,23.71q-38.77,0-62.71-19.7Q1708.72,512,1708.72,472.49Zm61.8-.15q0,21.51,8.71,31.81a28.53,28.53,0,0,0,43.77.15q8.57-10.14,8.56-32.56,0-20.91-8.63-31.13t-21.36-10.22a27.94,27.94,0,0,0-22.27,10.37Q1770.53,451.14,1770.52,472.34Z" transform="translate(-136.49 -65.79)"/></svg>